Simulation
nRows=27
nColumns=15
endheader
time  TH_x TH_y TH_z SC_y  SC_z  SC_x  AC_y  AC_z  AC_x  GH_y  GH_z  GH_yy  EL_x  PS_y
4.8020000000000005  0.000000  0.000000  0.000000  -41.115988251239216  17.01522315616987  53.6306857306188  54.294314662124044  -8.676830049012661  -0.49014583961637287  3.0021303171045486  55.112594160734375  1.448646415736957  13.634808830269627  120.000000
4.850020000000001  0.000000  0.000000  0.000000  -41.61985693415788  17.91990766438445  54.56728075644329  53.76202749388371  -9.495987821971772  -0.5514395535331703  3.397500452849625  54.941697471667034  0.9968804449321443  13.589597310709115  120.000000
4.898040000000001  0.000000  0.000000  0.000000  -41.84070572984976  18.817335080217806  55.1588116887311  53.135070942812916  -10.253198356266696  -0.812077214842758  3.9644068434590367  54.55424089567766  0.6219867393807141  13.444134208693233  120.000000
4.946060000000001  0.000000  0.000000  0.000000  -41.773317399040934  19.61628850015734  55.49844999405957  52.468957317749364  -10.94314003731767  -1.2511915097312982  4.64214439956987  53.85728410309394  0.369131868917547  13.238897224332021  120.000000
4.99408  0.000000  0.000000  0.000000  -41.43505148562652  20.251039662110816  55.66534036971589  51.79966950975578  -11.550440902758108  -1.8348450606063045  5.383441887101702  52.74721531154815  0.25738582125675113  13.011300608699308  120.000000
5.0421000000000005  0.000000  0.000000  0.000000  -40.87077085142925  20.733815452576877  55.678334975619535  51.13378942852703  -12.05928797404709  -2.5147585543530337  6.170319118236132  51.14112153835169  0.26653128696316947  12.793545610161885  120.000000
5.090120000000001  0.000000  0.000000  0.000000  -40.13712958437598  21.12970457530075  55.513019550931986  50.45548792584081  -12.462105142483777  -3.238341200417394  7.009475905114591  48.992799399149  0.34540597868600864  12.610480083673675  120.000000
5.138140000000001  0.000000  0.000000  0.000000  -39.26631797618356  21.50968580592996  55.08263586605245  49.7456983827176  -12.736888416793525  -3.9576109034763287  7.927251605738546  46.31941761387665  0.42465350151180675  12.479109713941238  120.000000
5.186160000000001  0.000000  0.000000  0.000000  -38.25310172322611  21.89071278746159  54.2936665891852  49.00044815692396  -12.845938194078673  -4.639692647151206  8.958927933159433  43.19040543744112  0.4382562245780096  12.404616588891882  120.000000
5.234180000000001  0.000000  0.000000  0.000000  -37.08807254789252  22.24339834684648  53.11071231564302  48.23298759892321  -12.76373467594261  -5.267359181270355  10.144458447820348  39.69484407620018  0.3399042071682161  12.377532053871409  120.000000
5.2822000000000005  0.000000  0.000000  0.000000  -35.77988728627465  22.53213976547686  51.545006525450596  47.46718779873906  -12.48720858929961  -5.827834057898173  11.539214691845865  35.93377740239547  0.09777429908035509  12.377080829907946  120.000000
5.330220000000001  0.000000  0.000000  0.000000  -34.35056063022925  22.718436128702194  49.643641519491176  46.731760377310685  -12.031446741059288  -6.313301568720309  13.225120691067017  32.01659941206612  -0.3245256069368629  12.376903278294186  120.000000
5.378240000000001  0.000000  0.000000  0.000000  -32.83424030636454  22.764785554673622  47.482207584657736  46.05392231184732  -11.423982575114959  -6.728764114878875  15.32264471861994  28.05574955479952  -0.9951370882195832  12.35341370213909  120.000000
5.426260000000001  0.000000  0.000000  0.000000  -31.27759041358383  22.638267932584675  45.15753592707328  45.453303950874854  -10.700491142575606  -7.099596263751511  18.014953304398222  24.164885924726317  -2.0528782402629493  12.294074953346573  120.000000
5.474280000000001  0.000000  0.000000  0.000000  -29.73967421820599  22.317696239769337  42.77562438045008  44.94198887920793  -9.897375234983238  -7.462681982173422  21.578776669119904  20.45361549726492  -3.7482721198476785  12.202358120838742  120.000000
5.5223  0.000000  0.000000  0.000000  -28.2913722192495  21.802262549414092  40.431218815515024  44.53060992574787  -9.038960082477722  -7.83478533868581  26.409287643968447  17.019527757916045  -6.472340953819053  12.093342688808443  120.000000
5.570320000000001  0.000000  0.000000  0.000000  -27.004006860444978  21.1144096274544  38.199572040043186  44.2288152187533  -8.142125859825986  -8.210711639967359  33.06719145844364  13.958025143123866  -10.798089494760362  11.98883696483197  120.000000
5.618340000000001  0.000000  0.000000  0.000000  -25.933054359398827  20.29470000080559  36.13484015417863  44.040307209626654  -7.2284755436975185  -8.582629351918449  42.29077106245948  11.382080462044616  -17.483257342436712  11.914472956214414  120.000000
5.666360000000001  0.000000  0.000000  0.000000  -25.109867486641516  19.391631178917294  34.2681995137514  43.95836321050434  -6.325665880405778  -8.948031716429993  54.744906735739505  9.427533817461445  -27.21263446027624  11.895870927858828  120.000000
5.714380000000001  0.000000  0.000000  0.000000  -24.540720196951778  18.455299151468882  32.60505869242864  43.971203056951246  -5.455339850667289  -9.296114016883958  70.21489590521061  8.212615350327221  -39.790082636824515  11.954606251865174  120.000000
5.762400000000001  0.000000  0.000000  0.000000  -24.214269005293026  17.534306733200278  31.120367550208787  44.07340363755536  -4.6126634832844795  -9.57354325392811  86.8425839186653  7.734394921058013  -53.377790185298586  12.103916789113843  120.000000
5.810420000000001  0.000000  0.000000  0.000000  -24.104588143586987  16.66990426757566  29.77705597366012  44.26142338021125  -3.773902344929051  -9.710930714005112  102.1368300385163  7.829952598300761  -65.51186631147397  12.351756409727336  120.000000
5.858440000000001  0.000000  0.000000  0.000000  -24.172968954227645  15.88798636988413  28.545971953821557  44.52314423872568  -2.9167516473262696  -9.673795411369035  114.74390156830866  8.277191899536605  -74.87943691359108  12.702133815508374  120.000000
5.906460000000001  0.000000  0.000000  0.000000  -24.376011887395716  15.196914581745332  27.40391056213588  44.838281167408844  -2.0270766558487847  -9.462017816505794  124.59873468913474  8.895835632878512  -81.47542112370947  13.14935476473378  120.000000
5.954480000000001  0.000000  0.000000  0.000000  -24.67186817262644  14.5928436886996  26.329027693696478  45.18603533453694  -1.1000139656869201  -9.097516223255097  132.14599186632617  9.572878835794919  -85.82138525271395  13.676549736048552  120.000000
6.002500000000001  0.000000  0.000000  0.000000  -25.02638883349492  14.064734320392546  25.300481168090727  45.546567448511205  -0.139244738242154  -8.615754741757598  137.8450112708064  10.243927431290645  -88.45931160278585  14.259458758687598  120.000000
6.050520000000001  0.000000  0.000000  0.000000  -25.414992741697638  13.598515125373241  24.29758707728405  45.90130608312091  0.843595438063751  -8.056630986043537  142.0391282757031  10.869463576244002  -89.80769975775196  14.86992156837086  120.000000
